Coordinates
version=1
nRows=19
nColumns=24
inDegrees=yes

Units are S.I. units (second, meters, Newtons, ...)
If the header above contains a line with 'inDegrees', this indicates whether rotational values are in degrees (yes) or radians (no).

endheader
time	pelvis_tilt	pelvis_list	pelvis_rotation	pelvis_tx	pelvis_ty	pelvis_tz	hip_flexion_r	hip_adduction_r	hip_rotation_r	knee_angle_r	ankle_angle_r	subtalar_angle_r	mtp_angle_r	hip_flexion_l	hip_adduction_l	hip_rotation_l	knee_angle_l	ankle_angle_l	subtalar_angle_l	mtp_angle_l	lumbar_extension	lumbar_bending	lumbar_rotation
      2.31500000	      9.44470523	      1.05396059	   -180.07953952	      0.27943911	      0.83815164	     -1.21633248	     26.91362333	    -13.51566670	    -26.50707302	    -27.06687992	      3.55044880	      5.75711471	      0.00000000	     26.71915499	    -17.26706076	    -23.74074647	    -25.94202690	      3.16366258	     10.22076302	      0.00000000	     -2.34673771	      1.98571839	      0.51090899
      2.32000000	      9.41629186	      1.07322548	   -180.05523357	      0.27885126	      0.83913691	     -1.21642712	     26.54690185	    -13.35108910	    -26.61316855	    -26.45939950	      3.29704247	      5.75527236	      0.00000000	     26.35830508	    -17.15786422	    -23.85271282	    -25.33483661	      2.89113132	     10.20935970	      0.00000000	     -2.24312020	      1.98253842	      0.44869197
      2.32500000	      9.42339978	      1.10292703	   -180.06811936	      0.27820282	      0.84003567	     -1.21629919	     26.23700225	    -13.18430340	    -26.67148272	    -25.87610587	      3.05852585	      5.75913249	      0.00000000	     26.02807541	    -17.04566705	    -23.93442513	    -24.74707871	      2.68676725	     10.19427681	      0.00000000	     -2.10366881	      1.98995103	      0.51211181
      2.33000000	      9.49323254	      1.14113087	   -180.12744955	      0.27753751	      0.84077592	     -1.21611800	     26.00089017	    -13.00482089	    -26.71831405	    -25.29202131	      2.81784535	      5.76940807	      0.00000000	     25.76324066	    -16.96910954	    -24.07637199	    -24.19506710	      2.48772055	     10.16283704	      0.00000000	     -1.89598965	      2.04229565	      0.58858395
      2.33500000	      9.51681439	      1.15954482	   -180.14333758	      0.27695706	      0.84146615	     -1.21607191	     25.72438559	    -12.85105350	    -26.75462231	    -24.73359211	      2.57257335	      5.74957558	      0.00000000	     25.47939505	    -16.87367225	    -24.17898791	    -23.67213137	      2.30779142	     10.19235650	      0.00000000	     -1.74458792	      2.08244564	      0.53691873
      2.34000000	      9.44361965	      1.16241107	   -180.11729353	      0.27642961	      0.84222034	     -1.21609496	     25.34910374	    -12.72544195	    -26.83251909	    -24.20014016	      2.39177542	      5.70663197	      0.00000000	     25.11518892	    -16.75669822	    -24.26346059	    -23.15484222	      2.11880021	     10.20709444	      0.00000000	     -1.71193623	      2.07833381	      0.44719786
      2.34500000	      9.54950011	      1.18918254	   -180.17757198	      0.27584251	      0.84280732	     -1.21594468	     25.19415325	    -12.57930089	    -26.89080296	    -23.69712478	      2.15094593	      5.75289872	      0.00000000	     24.91855101	    -16.68771220	    -24.42084539	    -22.65626505	      1.92029693	     10.20767786	      0.00000000	     -1.48105212	      2.16679653	      0.40907954
      2.35000000	      9.52537776	      1.22466861	   -180.17898196	      0.27533268	      0.84336172	     -1.21591550	     24.90588045	    -12.43975794	    -26.99586332	    -23.23198624	      2.00669273	      5.74835796	      0.00000000	     24.63559102	    -16.62837356	    -24.51989193	    -22.20265296	      1.75804004	     10.20334789	      0.00000000	     -1.38206604	      2.20985580	      0.39887779
      2.35500000	      9.60500557	      1.26573341	   -180.21697488	      0.27477960	      0.84383284	     -1.21571297	     24.73259149	    -12.30534718	    -27.10507826	    -22.75984433	      1.79933215	      5.81046168	      0.00000000	     24.45321748	    -16.57728518	    -24.67074700	    -21.75830273	      1.58706892	     10.18539472	      0.00000000	     -1.18230607	      2.21380858	      0.54319362
      2.36000000	      9.62712947	      1.28676492	   -180.21699610	      0.27426336	      0.84438961	     -1.21561695	     24.48370279	    -12.19178453	    -27.24295446	    -22.26445589	      1.58268133	      5.85176285	      0.00000000	     24.22341598	    -16.50394774	    -24.79284747	    -21.31899922	      1.40558758	     10.18985225	      0.00000000	     -1.04720105	      2.25048556	      0.48653901
      2.36500000	      9.63268016	      1.31144562	   -180.20030377	      0.27377025	      0.84482826	     -1.21557511	     24.21689631	    -12.07698826	    -27.36541464	    -21.78007818	      1.40650957	      5.91051170	      0.00000000	     24.00492884	    -16.44173623	    -24.91360750	    -20.92236367	      1.26300682	     10.22270942	      0.00000000	     -0.94345035	      2.23436073	      0.49341662
      2.37000000	      9.65268980	      1.34025722	   -180.18448067	      0.27328830	      0.84525962	     -1.21548480	     23.97938387	    -11.97069183	    -27.52760909	    -21.32819720	      1.22446429	      5.97201433	      0.00000000	     23.80994512	    -16.39507439	    -25.03796529	    -20.55837382	      1.15650130	     10.34120601	      0.00000000	     -0.81717422	      2.27935073	      0.42607844
      2.37500000	      9.65977434	      1.37840690	   -180.19529702	      0.27277025	      0.84564101	     -1.21540144	     23.74289231	    -11.85552262	    -27.69274383	    -20.90769384	      1.11975276	      6.11974542	      0.00000000	     23.59783406	    -16.37510412	    -25.22164813	    -20.20136083	      1.06094114	     10.50920495	      0.00000000	     -0.71884449	      2.35859422	      0.32574043
      2.38000000	      9.62672505	      1.43253002	   -180.19849294	      0.27240419	      0.84600826	     -1.21533682	     23.49163671	    -11.73486993	    -27.88477428	    -20.53161048	      0.99007672	      6.23777569	      0.00000000	     23.37211015	    -16.36442899	    -25.34375983	    -19.85765281	      0.92400083	     10.58275490	      0.00000000	     -0.67254196	      2.37652746	      0.41468785
      2.38500000	      9.70768746	      1.47175233	   -180.22827253	      0.27185591	      0.84631014	     -1.21514766	     23.34149015	    -11.62779653	    -28.05688375	    -20.11981098	      0.82189147	      6.36956101	      0.00000000	     23.23154111	    -16.32959968	    -25.49761981	    -19.49342108	      0.76769101	     10.62256221	      0.00000000	     -0.46638582	      2.50932995	      0.28752433
      2.39000000	      9.73977094	      1.52000859	   -180.20966116	      0.27148319	      0.84658550	     -1.21507234	     23.13841149	    -11.51364477	    -28.24520980	    -19.70427457	      0.66989522	      6.51197339	      0.00000000	     23.10700977	    -16.31704287	    -25.60350456	    -19.20583497	      0.65919168	     10.71628026	      0.00000000	     -0.35429615	      2.56243407	      0.22162997
      2.39500000	      9.67364106	      1.55096165	   -180.13580844	      0.27105846	      0.84693279	     -1.21502739	     22.81679835	    -11.44032732	    -28.49138659	    -19.30045514	      0.60310880	      6.74294630	      0.00000000	     22.88464017	    -16.27857431	    -25.69237224	    -18.91127711	      0.61604614	     10.91586917	      0.00000000	     -0.37293115	      2.54777156	      0.13149034
      2.40000000	      9.69551911	      1.59032874	   -180.10712277	      0.27062351	      0.84719739	     -1.21490789	     22.61406300	    -11.36079911	    -28.73997554	    -18.92997742	      0.49209309	      7.01171264	      0.00000000	     22.75930461	    -16.27142460	    -25.87008669	    -18.65780135	      0.52739947	     11.15604948	      0.00000000	     -0.27481450	      2.60451615	      0.02909196
      2.40500000	      9.72211067	      1.64819539	   -180.10422605	      0.27027297	      0.84744170	     -1.21477429	     22.43588390	    -11.24415064	    -28.91545116	    -18.56640360	      0.35485155	      7.10734025	      0.00000000	     22.63492216	    -16.26714976	    -25.98250572	    -18.38292651	      0.43485543	     11.18645984	      0.00000000	     -0.14452514	      2.66954053	      0.04096872
